# Blender v2.79 (sub 0) OBJ File: 'SHADOW150.blend'
# www.blender.org
mtllib shadow150.mtl
o masked_Untitled.001
v 0.444006 0.934117 0.057970
v 0.483485 0.957616 0.023179
v -0.436890 0.937633 0.053339
v -0.470669 0.948252 -0.006155
v -0.529764 0.784984 0.070439
v -0.523104 0.788950 0.017985
v 0.283177 1.158760 0.027581
v 0.519067 0.813135 -0.000993
v -0.062347 1.577089 0.025268
v 0.049788 1.572203 0.114787
v 0.000585 1.569806 0.121640
v -0.348994 1.209333 0.060544
v -0.351857 1.207039 0.009518
v -0.297914 1.207354 0.049062
v -0.115126 1.300831 0.120516
v -0.128414 1.481530 0.097365
v -0.263139 1.192361 0.022705
v -0.169790 1.321203 0.013756
v 0.181193 1.485265 0.075016
v -0.081615 1.524993 0.033723
v -0.002726 1.302072 0.156759
v -0.151584 0.059170 -0.057320
v -0.223026 0.030641 -0.167193
v -0.272755 0.013519 0.102461
v -0.200392 0.142720 -0.024646
v 0.152970 0.505802 0.019564
v -0.198574 0.064648 -0.037252
v 0.181844 1.332530 -0.061404
v 0.181606 1.300631 0.008388
v 0.207760 1.465983 -0.045467
v 0.095810 0.481692 -0.063881
v 0.220394 0.514050 -0.057237
v 0.154130 0.128176 -0.101300
v 0.151058 0.026169 -0.152404
v 0.272791 0.013418 0.102309
v -0.162745 0.483849 -0.144955
v -0.529577 0.786742 0.068529
v 0.117707 0.835997 -0.122940
v 0.002040 0.832787 0.049754
v 0.003696 0.843556 -0.074943
v -0.222444 0.467943 -0.058590
v -0.091731 0.944443 -0.110266
v -0.191612 1.459171 -0.037305
v 0.008049 1.468979 0.117419
v 0.126751 1.489120 0.109738
v -0.140031 1.354254 -0.087245
v -0.114192 0.831378 -0.108412
v 0.090954 0.935132 -0.109809
v 0.312055 1.186321 0.065415
v 0.057039 1.782846 0.016877
v 0.044980 1.696806 -0.036609
v -0.192715 1.488955 0.050605
v 0.166945 0.012806 0.081957
v 0.122460 1.307738 0.126801
v 0.470618 0.945016 -0.001667
v -0.007408 1.775376 -0.032474
v -0.064514 1.707134 -0.053864
v -0.066222 1.784293 0.014913
v 0.061122 1.583607 0.045834
v 0.003986 1.587398 -0.012322
v -0.163420 0.012902 0.082164
v 0.172679 0.898228 -0.013505
v -0.075877 0.935944 0.110196
v 0.185493 0.131118 -0.025004
v 0.527402 0.800699 0.056708
v 0.063684 1.699742 0.130345
v -0.152171 0.858194 0.066117
v -0.138961 0.473579 0.028478
v -0.103996 0.442901 -0.058886
v 0.319139 1.205568 -0.032544
v -0.170449 0.894401 -0.002533
v -0.065822 1.703130 0.134988
v -0.000777 1.797229 0.129804
v -0.045030 1.567436 0.101590
v 0.162749 0.500409 -0.145048
v 0.016734 1.405514 -0.093663
v 0.076340 0.935992 0.110382
v 0.369891 1.201200 0.014472
v 0.276298 1.189337 -0.040326
v -0.313831 1.184001 -0.035363
v -0.215285 0.043414 -0.128735
v 0.105608 0.837318 0.093837
v 0.213144 0.029939 -0.164969
v -0.441785 0.941707 0.010344
v 0.228441 0.103046 -0.059750
v 0.731470 0.410191 0.115593
v 0.449044 0.939049 0.092242
v 0.732106 0.408766 0.075623
v 0.449680 0.937624 0.052272
v 0.766756 0.429030 0.115483
v 0.484329 0.957888 0.092132
v 0.767392 0.427605 0.075513
v 0.484965 0.956463 0.052162
vt 0.946468 0.150868
vt 0.896287 0.153837
vt 0.660200 0.865200
vt 0.973249 0.147194
vt 0.854436 0.296048
vt 0.931634 0.258250
vt 0.194579 0.943102
vt 0.007800 0.931600
vt 0.165648 0.870563
vt 0.603500 0.867200
vt 0.502000 0.773400
vt 0.568842 0.788256
vt 0.535200 0.898400
vt 0.000000 0.000000
vt 0.922264 0.511128
vt 0.798225 0.465487
vt 0.884468 0.526561
vt 0.890398 0.533161
vt 0.484688 0.632355
vt 0.615940 0.205436
vt 0.406300 0.255900
vt 0.460900 0.132800
vt 0.402332 0.120512
vt 0.259642 0.234611
vt 0.205100 0.396500
vt 0.687500 0.867200
vt 0.660200 0.781042
vt 0.689500 0.894500
vt 0.382909 0.129922
vt 0.326095 0.157446
vt 0.816400 0.773400
vt 0.310623 0.360447
vt 0.529090 0.433701
vt 0.000000 0.000000
vt 0.535200 0.482400
vt 0.131121 0.783991
vt 0.043000 0.785200
vt 0.236195 0.881928
vt 0.398890 0.704516
vt 0.744100 0.748000
vt 0.308979 0.774781
vt 0.320863 0.818065
vt 0.320300 0.974600
vt 0.741047 0.409235
vt 0.717285 0.290493
vt 0.753830 0.290227
vt 0.806208 0.405846
vt 0.778230 0.236044
vt 0.727209 0.141265
vt 0.871100 0.560500
vt 0.778362 0.150589
vt 0.912663 0.154633
vt 0.873000 0.886700
vt 0.412606 0.794448
vt 0.132800 0.396500
vt 0.125984 0.352438
vt 0.023400 0.380900
vt 0.095384 0.154638
vt 0.169900 0.335900
vt 0.154300 0.142134
vt 0.564500 0.025400
vt 0.557097 0.118502
vt 0.654669 0.776062
vt 0.800776 0.143218
vt 0.910200 0.875000
vt 0.496585 0.037392
vt 0.488300 0.768789
vt 0.440819 0.771511
vt 0.928945 0.527316
vt 0.573527 0.322744
vt 0.897538 0.793007
vt 0.000000 0.000000
vt 0.898090 0.871982
vt 0.423800 0.878900
vt 0.323063 0.849600
vt 0.312500 0.384800
vt 0.421842 0.627249
vt 0.528679 0.433660
vt 0.523400 0.460900
vt 0.548800 0.507800
vt 0.636303 0.568484
vt 0.482234 0.516338
vt 0.413806 0.368184
vt 0.897076 0.803414
vt 0.413840 0.367772
vt 0.219258 0.224834
vt 0.596613 0.319055
vt 0.421845 0.627232
vt 0.440878 0.771704
vt 0.480226 0.631931
vt 0.569022 0.491373
vt 0.000000 0.000000
vt 0.364846 0.839479
vt 0.328485 0.900779
vt 0.423800 0.878900
vt 0.412381 0.793925
vt 0.000000 0.000000
vt 0.884018 0.480259
vt 0.185500 0.134800
vt 0.630900 0.867200
vt 0.828100 0.216800
vt 0.892327 0.253381
vt 0.615940 0.205437
vt 0.800044 0.444668
vt 0.168444 0.142402
vt 0.617200 0.173800
vt 0.470700 0.181600
vt 0.552700 0.173800
vt 0.691400 0.152300
vt 0.809711 0.371557
vt 0.931566 0.380000
vt 0.418000 0.822300
vt 0.816939 0.775156
vt 0.310124 0.799609
vt 0.777300 0.873000
vt 0.308600 0.773400
vt 0.785200 0.898400
vt 0.986300 0.810763
vt 0.477761 0.354847
vt 0.402326 0.120626
vt 0.918036 0.506293
vt 0.959761 0.465732
vt 0.962202 0.461728
vt 0.459991 0.140150
vt 0.173631 0.342324
vt 0.424181 0.931620
vt 0.384756 0.930186
vt 0.386982 0.969044
vt 0.931913 0.317884
vt 0.166504 0.341447
vt 0.475998 0.376894
vt 0.076768 0.160664
vt 0.013945 0.161062
vt 0.798247 0.465483
vt 0.537100 0.595700
vt 0.564415 0.578124
vt 0.655978 0.775766
vt 0.573897 0.322656
vt 0.718190 0.399068
vt 0.209089 0.146209
vt 0.904261 0.497602
vt 0.726054 0.404975
vt 0.772135 0.502254
vt 0.000000 0.000000
vt 0.000000 0.000000
vt 0.000000 0.000000
vt 0.000000 0.000000
vt 0.000000 0.000000
vt 0.000000 0.000000
vt 0.000000 0.000000
vt 0.000000 0.000000
vt 0.000000 0.000000
vt 0.000000 0.000000
vt 0.000000 0.000000
vt 0.000000 0.000000
vt 0.259953 0.726015
vt 0.064763 0.874202
vt 0.237188 0.593943
vn -0.1129 -0.1174 0.9866
vn -0.6607 0.0458 0.7493
vn -0.0539 0.1331 0.9896
vn 0.7302 0.0914 0.6771
vn -0.6965 0.0737 0.7138
vn -0.4926 -0.5273 0.6923
vn 0.8158 -0.5411 0.2042
vn 0.1413 -0.1817 -0.9731
vn -0.4881 0.2819 0.8260
vn -0.6305 0.0064 0.7761
vn -0.7374 0.5207 0.4303
vn -0.8732 0.4084 -0.2659
vn -0.2411 -0.5310 -0.8124
vn -0.6338 -0.2783 0.7217
vn -0.4128 0.3134 0.8552
vn -0.2562 0.4734 0.8427
vn -0.5889 -0.3794 0.7136
vn 0.6209 -0.2710 0.7356
vn -0.3334 0.0508 -0.9414
vn 0.9725 -0.2062 -0.1086
vn -0.0153 0.0822 -0.9965
vn -0.6252 -0.1070 0.7731
vn -0.1805 -0.2537 0.9503
vn -0.0389 0.0360 0.9986
vn 0.4513 0.2806 0.8471
vn -0.9944 0.0773 0.0725
vn -0.9873 0.0891 -0.1317
vn -0.9782 0.1710 -0.1178
vn -0.8722 0.4799 -0.0946
vn -0.8585 0.5052 -0.0879
vn -0.9326 0.3179 -0.1708
vn -0.6081 0.0534 0.7921
vn -0.8378 0.3602 -0.4103
vn 0.4171 -0.5703 0.7076
vn 0.6105 -0.0045 0.7920
vn 0.1015 -0.8012 0.5897
vn 0.0637 0.6930 -0.7182
vn 0.6466 -0.0263 -0.7623
vn -0.6103 0.0251 -0.7918
vn -0.7015 0.6946 -0.1595
vn 0.8953 0.4219 -0.1433
vn 0.1133 0.0602 -0.9917
vn 0.5612 0.1007 0.8216
vn 0.5921 0.5479 -0.5909
vn 0.6850 0.4201 0.5952
vn 0.3474 -0.1838 0.9195
vn 0.3233 -0.1192 0.9387
vn 0.9987 0.0482 0.0187
vn 0.0422 -0.2216 0.9742
vn -0.1046 -0.4407 0.8915
vn -0.9738 -0.2180 -0.0644
vn 0.0730 0.0253 -0.9970
vn 0.2811 0.0997 -0.9545
vn -0.5528 0.5365 -0.6377
vn 0.9969 0.0609 0.0507
vn -0.7352 -0.5489 -0.3978
vn 0.2518 -0.6307 -0.7340
vn -0.9803 0.0436 -0.1928
vn -0.3178 0.0430 -0.9472
vn -0.9911 -0.0338 -0.1284
vn 0.3710 -0.7819 0.5010
vn -0.5122 -0.3224 0.7960
vn 0.2511 -0.6840 -0.6849
vn 0.3223 -0.0013 -0.9466
vn 0.2779 -0.0525 -0.9592
vn -0.4007 -0.0173 -0.9160
vn 0.1057 -0.2694 0.9572
vn 0.6320 -0.3811 0.6747
vn 0.8970 0.4179 0.1439
vn 0.9125 0.4068 0.0426
vn 0.4446 0.1319 -0.8860
vn 0.3896 -0.3222 -0.8628
vn -0.0491 -0.2824 -0.9580
vn 0.7062 0.6681 -0.2344
vn 0.0259 0.7676 0.6404
vn -0.5740 0.2553 0.7780
vn 0.3318 -0.1643 0.9289
vn -0.0177 -0.0528 0.9984
vn 0.0289 0.3491 -0.9366
vn 0.9669 0.2535 0.0280
vn -0.3753 -0.4925 -0.7852
vn 0.2404 0.0190 -0.9705
vn 0.9549 -0.2800 -0.0986
vn -0.9336 0.3289 0.1423
vn 0.8557 -0.5128 0.0699
vn 0.8706 -0.4706 -0.1437
vn -0.8821 -0.4710 0.0028
vn 0.0159 -0.0356 -0.9992
vn 0.8821 0.4710 -0.0028
vn -0.0159 0.0356 0.9992
vn 0.4707 -0.8814 0.0389
vn -0.4707 0.8814 -0.0389
vn -0.7925 -0.4984 0.3515
vn 0.3973 -0.1905 0.8977
usemtl Material_#53.001
s 1
f 11/1/1 74/2/2 44/3/3
f 11/4/1 66/5/4 72/6/5
f 18/7/6 17/8/7 80/9/8
f 16/10/9 18/11/6 15/12/10
f 52/13/11 16/10/9 9/14/12
f 23/15/13 24/16/14 25/17/15
f 64/18/16 53/19/17 35/20/18
f 47/21/19 69/22/20 36/23/21
f 15/12/10 67/24/22 63/25/23
f 44/26/3 21/27/24 45/28/25
f 36/29/21 41/30/26 47/21/19
f 18/31/6 71/32/27 15/12/10
f 37/33/28 3/34/29 6/35/30
f 4/36/31 3/37/32 13/38/33
f 29/39/34 45/28/25 54/40/35
f 14/41/36 12/42/36 17/43/36
f 56/44/37 51/45/38 57/46/39
f 58/47/40 56/44/37 57/46/39
f 51/45/38 59/48/41 60/49/42
f 45/50/25 59/51/41 10/52/43
f 30/53/44 59/51/41 19/54/45
f 77/55/46 82/56/47 62/57/48
f 26/58/49 39/59/50 31/60/51
f 75/61/52 31/60/51 38/62/53
f 82/56/47 39/59/50 26/58/49
f 15/12/10 63/25/23 21/63/24
f 9/64/12 60/49/42 43/65/54
f 75/61/52 38/62/53 32/66/55
f 34/67/56 83/68/57 53/19/17
f 53/19/17 64/18/16 33/69/58
f 64/70/16 26/58/49 33/69/58
f 43/65/54 46/71/59 80/72/8
f 30/73/44 43/65/54 60/49/42
f 57/46/39 9/64/12 58/47/40
f 9/14/12 16/10/9 74/2/2
f 52/13/11 43/74/54 13/75/33
f 80/72/8 46/71/59 18/31/6
f 54/40/35 77/55/46 62/76/48
f 35/77/18 53/19/17 83/68/57
f 74/2/2 11/1/1 72/6/5
f 30/53/44 60/49/42 59/51/41
f 5/78/60 37/33/28 6/79/30
f 65/80/61 1/81/62 8/82/63
f 48/83/64 28/84/65 62/76/48
f 15/12/10 71/32/27 67/24/22
f 42/85/66 18/31/6 46/71/59
f 68/86/67 41/30/26 25/87/15
f 24/88/14 23/89/13 61/90/68
f 1/91/62 2/92/69 78/93/70
f 78/93/70 70/94/71 30/95/44
f 19/96/45 78/93/70 30/53/44
f 10/52/43 44/3/3 45/28/25
f 13/38/33 80/72/8 84/97/72 4/36/31
f 41/30/26 36/23/21 23/98/13
f 69/99/20 68/86/67 25/87/15
f 21/27/24 44/100/3 16/10/9
f 21/27/24 16/10/9 15/12/10
f 10/52/43 59/101/41 66/102/4
f 25/87/15 24/103/14 61/104/68
f 31/105/51 40/106/73 38/62/53
f 62/107/48 38/62/53 48/108/64
f 40/106/73 48/108/64 38/62/53
f 40/106/73 31/105/51 39/109/50
f 25/87/15 41/30/26 23/15/13
f 32/66/55 38/62/53 62/107/48
f 50/110/74 73/111/75 66/5/4
f 52/112/11 13/75/33 12/42/76
f 62/76/48 29/113/34 54/40/35
f 71/32/27 41/30/26 67/24/22
f 21/63/24 63/25/23 77/55/46
f 14/114/77 18/11/6 52/13/11
f 19/115/45 29/39/34 49/116/78
f 19/54/45 59/51/41 45/117/25
f 28/84/65 76/118/79 30/73/44
f 69/22/20 40/119/73 39/59/50
f 69/22/20 47/21/19 40/119/73
f 50/110/74 56/44/37 58/47/40
f 51/45/38 56/44/37 50/110/74
f 75/120/52 85/121/80 83/122/57
f 33/69/58 34/123/56 53/19/17
f 75/120/52 83/122/57 31/124/51
f 63/25/23 67/24/22 39/125/50
f 45/28/25 29/39/34 19/115/45
f 45/28/25 21/27/24 54/40/35
f 71/32/27 18/31/6 42/85/66
f 28/126/65 79/127/81 29/128/34
f 28/84/65 48/83/64 76/118/79
f 76/118/79 43/65/54 30/73/44
f 72/129/5 9/64/12 74/2/2
f 44/3/3 10/52/43 11/1/1
f 57/46/39 60/49/42 9/64/12
f 77/55/46 63/25/23 39/130/50
f 62/76/48 28/84/65 29/113/34
f 42/85/66 46/71/59 76/118/79
f 43/65/54 76/118/79 46/71/59
f 44/3/3 74/2/2 16/10/9
f 47/21/19 42/85/66 40/119/73
f 47/21/19 71/32/27 42/85/66
f 48/83/64 40/119/73 42/131/66
f 26/132/49 32/133/55 62/57/48
f 33/69/58 26/58/49 31/124/51
f 83/122/57 85/121/80 35/134/18
f 62/57/48 82/56/47 26/132/49
f 8/82/63 55/135/82 2/136/69
f 65/80/61 8/82/63 2/136/69
f 1/91/62 65/80/61 2/136/69
f 66/5/4 11/4/1 10/52/43
f 58/47/40 72/129/5 73/111/75
f 72/129/5 58/47/40 9/64/12
f 59/48/41 50/110/74 66/5/4
f 51/45/38 50/110/74 59/48/41
f 73/111/75 50/110/74 58/47/40
f 60/49/42 57/46/39 51/45/38
f 43/74/54 52/13/11 9/14/12
f 72/6/5 66/5/4 73/111/75
f 79/127/81 28/126/65 70/94/71
f 30/95/44 70/94/71 28/126/65
f 52/13/11 18/11/6 16/10/9
f 21/137/24 77/55/46 54/40/35
f 71/32/27 47/21/19 41/30/26
f 14/41/77 52/13/11 12/42/76
f 18/11/6 14/114/77 17/43/7
f 25/138/15 22/139/83 69/140/20
f 39/130/50 82/56/47 77/55/46
f 69/99/20 23/141/13 36/23/21
f 23/15/13 22/142/83 61/143/68
f 41/30/26 68/86/67 67/24/22
f 69/99/20 22/139/83 23/141/13
f 61/143/68 22/142/83 25/138/15
f 39/59/50 68/86/67 69/22/20
f 39/125/50 67/24/22 68/86/67
f 4/36/31 6/144/84 3/37/32
f 76/118/79 48/83/64 42/85/66
f 3/37/32 12/42/76 13/38/33
f 80/9/8 17/8/7 84/97/72
f 70/94/71 78/93/70 2/92/69
f 2/92/69 55/135/82 70/94/71
f 79/127/81 70/94/71 55/135/82
f 78/93/70 49/145/78 1/91/62
f 55/135/82 1/146/62 79/127/81
f 6/144/84 4/36/31 84/97/72
f 43/65/54 80/72/8 13/38/33
f 33/69/58 31/124/51 83/122/57 34/123/56
f 64/18/16 32/133/55 26/58/49
f 49/145/78 78/93/70 19/96/45
f 85/121/80 75/120/52 32/133/55
f 35/134/18 85/121/80 64/18/16
f 32/133/55 64/18/16 85/121/80
usemtl Material_#53.001_NONE
s off
f 6/144/85 3/34/85 5/147/85
f 6/144/86 84/97/86 3/34/86
f 86/148/87 87/149/87 89/150/87 88/151/87
f 88/151/88 89/150/88 93/152/88 92/153/88
f 92/153/89 93/152/89 91/154/89 90/155/89
f 90/155/90 91/154/90 87/149/90 86/148/90
f 88/151/91 92/153/91 90/155/91 86/148/91
f 93/152/92 89/150/92 87/149/92 91/154/92
s 1
f 7/156/93 49/145/78 29/157/34
f 1/91/62 49/145/78 7/156/93
f 1/146/62 7/158/93 79/127/81
f 79/127/81 7/158/93 29/128/34
f 12/42/76 3/37/32 14/41/94
f 14/41/94 3/37/32 17/43/7
f 17/8/7 3/34/32 84/97/72
f 55/135/82 8/82/63 1/146/62
l 16 20
